<svg width="408" height="426" viewBox="0 0 408 426" fill="none" xmlns="http://www.w3.org/2000/svg">
<path d="M370.5 167.66C338.4 208.1 298.02 230.44 266.06 248.64C243.36 261.58 222.7 274.4 207.12 290.38V225.26C218.9 217.48 231.22 210.66 243.68 203.56C273.84 186.38 309.78 166.46 336.6 131.44L299.94 92.24C272.44 121.18 239.6 138.58 212.22 155.08C210.52 156.1 208.82 157.12 207.12 158.16V99.44C226.7 87.22 248.66 74.5 266.16 56.18L213.6 0C200.72 3.78 166.72 18.74 157.14 39.46C148.6 57.92 192.9 55.22 204.52 64.66C208.92 68.26 206.5 72.66 205.32 74.18C190.46 93.34 100.26 92.28 0 208.12L207.1 425.58V393.14C207.1 350.8 248.38 327 277.7 307.64C320.4 279.44 368.82 258.94 408 207.8L370.48 167.7L370.5 167.66Z" fill="#87C82F"></path>
</svg>