<svg width="204" height="92" viewBox="0 0 204 92" fill="none" xmlns="http://www.w3.org/2000/svg">
<g clip-path="url(#clip0_2046_48)">
<path fill-rule="evenodd" clip-rule="evenodd" d="M19.729 52.4239C18.327 52.0049 17.297 51.9009 14.506 51.9009H10.791C8.105 51.9009 7.278 51.7299 6.661 51.0639C6.246 50.6699 6.042 49.9769 6.042 49.0989C6.042 47.6189 6.611 46.6379 7.695 46.3619C8.31 46.2149 8.933 46.1789 10.746 46.1789H20.15L22.326 41.5809H8.933C5.114 41.5809 3.251 42.1449 1.859 43.7309C0.62 45.0899 0 46.9489 0 48.9519C0 52.3189 1.803 55.3029 4.391 56.1169C5.625 56.5389 6.815 56.6439 9.965 56.6439H12.958C15.749 56.6439 16.315 56.7479 16.94 57.2039C17.45 57.6909 17.711 58.3989 17.711 59.3819C17.711 61.1359 17.094 61.8659 15.495 62.0129C14.612 62.1169 13.941 62.1169 12.448 62.1169H2.484L0.309 66.7109L14.044 66.7149C18.849 66.7149 20.24 66.3569 21.588 64.8129C22.876 63.4129 23.601 61.1999 23.601 58.9209C23.601 55.6189 22.153 53.1979 19.729 52.4239Z" fill="white"></path>
<path fill-rule="evenodd" clip-rule="evenodd" d="M154.076 52.4239C152.677 52.0049 151.641 51.9009 148.852 51.9009H145.133C142.46 51.9009 141.623 51.7299 141.008 51.0639C140.601 50.6699 140.391 49.9769 140.391 49.0989C140.391 47.6189 140.956 46.6379 142.043 46.3619C142.658 46.2149 143.287 46.1789 145.093 46.1789H154.5L156.676 41.5809H143.287C139.464 41.5809 137.602 42.1449 136.214 43.7309C134.957 45.0899 134.354 46.9489 134.354 48.9519C134.354 52.3189 136.149 55.3029 138.743 56.1169C139.973 56.5389 141.165 56.6439 144.32 56.6439H147.307C150.097 56.6439 150.672 56.7479 151.288 57.2039C151.799 57.6909 152.061 58.3989 152.061 59.3819C152.061 61.1359 151.443 61.8659 149.835 62.0129C148.958 62.1169 148.289 62.1169 146.797 62.1169H136.832L134.657 66.7109L148.393 66.7149C153.2 66.7149 154.588 66.3569 155.937 64.8129C157.222 63.4129 157.949 61.1999 157.949 58.9209C157.949 55.6189 156.501 53.1979 154.076 52.4239Z" fill="white"></path>
<path fill-rule="evenodd" clip-rule="evenodd" d="M88.7036 59.6553L81.5776 41.5813H75.2266L85.7566 66.7153H91.2816L102.596 41.5813H96.4036L88.7036 59.6553Z" fill="white"></path>
<path fill-rule="evenodd" clip-rule="evenodd" d="M33.5405 49.5118C33.5405 47.5488 34.3735 46.1788 36.7305 46.1788H41.6985C44.9055 46.1788 46.0865 46.9928 46.0865 49.1628C46.0865 50.5008 45.4715 51.5908 44.4355 51.9688C43.7665 52.2158 43.2995 52.3218 41.6985 52.3218H33.5405V49.5118ZM42.2695 56.8548C46.3995 56.8548 48.3115 56.3948 49.8065 54.9938C51.2575 53.5548 52.0805 51.4438 52.0805 49.1248C52.0805 45.6538 50.2245 42.8528 47.3805 42.0808C45.7845 41.6208 45.1155 41.5838 41.2365 41.5838L35.9615 41.5808C30.1525 41.5808 27.6575 45.4078 27.6575 49.5118V56.7068C27.6575 59.3398 27.7535 60.3218 28.2205 61.7238C28.4785 62.6408 28.9425 63.4798 29.5615 64.1888C30.9055 65.7958 32.7655 66.5048 35.7065 66.6738C36.5345 66.6738 37.4135 66.7148 38.3945 66.7148H49.0325L51.2075 62.1168H39.0155C36.0665 62.1168 34.9905 61.7658 34.2105 60.6788C33.6945 59.8658 33.5405 59.0288 33.5405 57.4158V56.8548H42.2695Z" fill="white"></path>
<path fill-rule="evenodd" clip-rule="evenodd" d="M123.862 58.8096C123.862 60.7476 123.023 62.1176 120.67 62.1176H115.691C112.496 62.1176 111.302 61.3036 111.302 59.1316C111.302 57.7936 111.931 56.7066 112.954 56.3536C113.634 56.0816 114.092 55.9776 115.691 55.9776H123.862V58.8096ZM115.127 51.4436C110.989 51.4436 109.09 51.9006 107.584 53.3036C106.143 54.7436 105.317 56.8546 105.317 59.1706C105.317 62.6406 107.177 65.4416 110.02 66.2176C111.618 66.6736 112.285 66.7146 116.16 66.7146H121.44C127.236 66.7146 129.744 62.8896 129.744 58.8096V51.5906C129.744 48.9546 129.639 47.9716 129.179 46.5736C128.919 45.6536 128.459 44.8186 127.83 44.1106C126.495 42.4976 124.634 41.7896 121.689 41.6216C120.863 41.6216 119.986 41.5836 119.003 41.5836L106.668 41.5806L108.843 46.1786H118.388C121.322 46.1786 122.409 46.5296 123.182 47.6196C123.692 48.4326 123.862 49.2676 123.862 50.8796V51.4436H115.127Z" fill="white"></path>
<path fill-rule="evenodd" clip-rule="evenodd" d="M62.9467 60.3985L62.9607 41.5815H57.1177L57.1167 60.0425C57.1167 64.3915 60.3267 66.7145 63.6677 66.7145H64.6147H74.9107L77.2077 61.8635H64.4387C63.6627 61.8635 62.9467 61.4845 62.9467 60.3985Z" fill="white"></path>
<path fill-rule="evenodd" clip-rule="evenodd" d="M198.887 21.587C194.747 26.811 189.54 29.687 185.432 32.04C182.502 33.691 179.839 35.344 177.834 37.407V29.022C179.348 28.01 180.94 27.13 182.541 26.216C186.433 24.006 191.061 21.441 194.507 16.921L189.798 11.894C186.254 15.615 182.014 17.861 178.498 19.97C178.273 20.108 178.046 20.248 177.834 20.36V12.808C180.36 11.23 183.186 9.608 185.447 7.231L178.674 0C177.009 0.491 172.625 2.423 171.396 5.089C170.294 7.445 176.007 7.12 177.501 8.346C178.064 8.779 177.762 9.37 177.606 9.547C175.693 12.034 164.075 11.894 151.149 26.811L177.834 54.818V50.64C177.834 45.195 183.152 42.116 186.925 39.62C192.433 36.004 198.663 33.343 203.714 26.772L198.887 21.587Z" fill="white"></path>
<path fill-rule="evenodd" clip-rule="evenodd" d="M142.797 85.253L141.383 81.144C141.279 80.868 141.136 80.436 140.954 79.844C140.772 79.252 140.646 78.816 140.576 78.543C140.391 79.391 140.119 80.315 139.761 81.319L138.4 85.253H142.797ZM144.953 91.571L143.446 87.379H137.677L136.2 91.571H133.599L139.246 76.417H141.93L147.576 91.571H144.953Z" fill="white"></path>
<path fill-rule="evenodd" clip-rule="evenodd" d="M153.162 91.5711H155.631V76.4781H153.162V91.5711Z" fill="white"></path>
</g>
<defs>
<clipPath id="clip0_2046_48">
<rect width="204" height="92" fill="white"></rect>
</clipPath>
</defs>
</svg>